<svg xmlns="http://www.w3.org/2000/svg" fill="none" viewBox="0 0 38 38" height="38" width="38">
<path stroke-linejoin="round" stroke-linecap="round" stroke-width="4" stroke="#214D9B" d="M28.1666 9.83325H28.1833M10.6666 2.33325H27.3333C31.9356 2.33325 35.6666 6.06421 35.6666 10.6666V27.3333C35.6666 31.9356 31.9356 35.6666 27.3333 35.6666H10.6666C6.06421 35.6666 2.33325 31.9356 2.33325 27.3333V10.6666C2.33325 6.06421 6.06421 2.33325 10.6666 2.33325ZM25.6666 17.9499C25.8723 19.337 25.6353 20.7536 24.9895 21.9983C24.3437 23.2429 23.3218 24.2523 22.0693 24.8827C20.8168 25.5131 19.3973 25.7326 18.0129 25.5098C16.6285 25.287 15.3495 24.6334 14.358 23.6419C13.3664 22.6503 12.7128 21.3714 12.49 19.9869C12.2673 18.6025 12.4867 17.1831 13.1171 15.9305C13.7476 14.678 14.7569 13.6562 16.0016 13.0103C17.2462 12.3645 18.6628 12.1276 20.0499 12.3333C21.4648 12.5431 22.7747 13.2024 23.7861 14.2138C24.7975 15.2252 25.4568 16.535 25.6666 17.9499Z"></path>
</svg>
